# xmcd
#
# Track frame offsets:
#	150
#	10905
#	22839
#	32985
#	43564
#	54997
#	65536
#	78283
#	92392
#	102799
#	115688
#	127202
#
# Disc length: 1840 seconds
#
# Revision: 0
# Processed by: cddbd v1.5.2PL0 Copyright (c) Steve Scherf et al.
# Submitted via: audiograbber 1.83.01
#
DISCID=8b072e0c
DTITLE=Red Simpson - The Man Behind The Badge
DYEAR=1966
DGENRE=Country
TTITLE0=Johnny Law
TTITLE1=Bad Man Highway Patrol
TTITLE2="Under Arrest"
TTITLE3=Sheriff Sam
TTITLE4=Sidewalk Patrol
TTITLE5=Workin' For The Highway Patrol
TTITLE6=Rules Of The Road
TTITLE7=I'm Turning In My Star
TTITLE8=The Highway Patrol
TTITLE9=25 Years On Patrol
TTITLE10=The City Police
TTITLE11=County Sheriff
EXTD=
EXTT0=
EXTT1=
EXTT2=
EXTT3=
EXTT4=
EXTT5=
EXTT6=
EXTT7=
EXTT8=
EXTT9=
EXTT10=
EXTT11=
PLAYORDER=
